<?xml version="1.0" encoding="UTF-8" standalone="no"?><!DOCTYPE svg PUBLIC "-//W3C//DTD SVG 1.1//EN" "http://www.w3.org/Graphics/SVG/1.1/DTD/svg11.dtd"><svg width="100%" height="100%" viewBox="0 0 3301 1251" version="1.1" xmlns="http://www.w3.org/2000/svg" xmlns:xlink="http://www.w3.org/1999/xlink" xml:space="preserve" xmlns:serif="http://www.serif.com/" style="fill-rule:evenodd;clip-rule:evenodd;stroke-linejoin:round;stroke-miterlimit:2;"><g transform="matrix(1,0,0,1,-86.9583,-349.646)"><g transform="matrix(729.167,0,0,729.167,68,817.042)"><path d="M0.24,0.005c-0.043,-0 -0.083,-0.006 -0.123,-0.019c-0.038,-0.012 -0.069,-0.027 -0.091,-0.046l0.032,-0.056c0.022,0.017 0.05,0.031 0.083,0.042c0.033,0.011 0.068,0.017 0.104,0.017c0.048,-0 0.083,-0.008 0.106,-0.023c0.023,-0.015 0.035,-0.036 0.035,-0.063c0,-0.019 -0.006,-0.035 -0.019,-0.046c-0.013,-0.011 -0.029,-0.019 -0.048,-0.024c-0.019,-0.006 -0.045,-0.012 -0.077,-0.017c-0.043,-0.008 -0.077,-0.016 -0.103,-0.025c-0.026,-0.008 -0.048,-0.022 -0.066,-0.042c-0.019,-0.02 -0.028,-0.048 -0.028,-0.083c0,-0.044 0.018,-0.08 0.055,-0.108c0.037,-0.028 0.088,-0.042 0.153,-0.042c0.034,0 0.068,0.005 0.102,0.014c0.034,0.009 0.062,0.02 0.084,0.035l-0.031,0.057c-0.043,-0.03 -0.095,-0.045 -0.155,-0.045c-0.045,0 -0.08,0.008 -0.103,0.024c-0.022,0.016 -0.034,0.037 -0.034,0.063c0,0.02 0.007,0.036 0.02,0.048c0.013,0.012 0.029,0.021 0.048,0.026c0.019,0.006 0.046,0.012 0.08,0.018c0.042,0.008 0.076,0.016 0.101,0.024c0.025,0.008 0.047,0.022 0.065,0.041c0.018,0.019 0.027,0.046 0.027,0.08c0,0.046 -0.019,0.082 -0.057,0.109c-0.039,0.027 -0.092,0.041 -0.16,0.041Z" style="fill:#d1d5db;fill-rule:nonzero;"/></g><g transform="matrix(729.167,0,0,729.167,424.563,817.042)"><path d="M0.557,-0.241l-0.44,0c0.004,0.055 0.025,0.099 0.063,0.133c0.038,0.033 0.086,0.05 0.144,0.05c0.033,-0 0.063,-0.006 0.09,-0.018c0.027,-0.011 0.051,-0.028 0.071,-0.051l0.04,0.046c-0.023,0.028 -0.053,0.049 -0.088,0.064c-0.035,0.015 -0.073,0.022 -0.115,0.022c-0.054,-0 -0.102,-0.011 -0.144,-0.034c-0.041,-0.023 -0.074,-0.055 -0.097,-0.096c-0.023,-0.041 -0.035,-0.087 -0.035,-0.138c-0,-0.051 0.011,-0.097 0.033,-0.138c0.023,-0.041 0.053,-0.072 0.092,-0.095c0.039,-0.023 0.083,-0.034 0.132,-0.034c0.049,0 0.092,0.011 0.131,0.034c0.039,0.023 0.069,0.054 0.091,0.094c0.022,0.041 0.033,0.087 0.033,0.139l-0.001,0.022Zm-0.254,-0.228c-0.051,0 -0.093,0.016 -0.128,0.049c-0.034,0.032 -0.053,0.074 -0.058,0.126l0.373,0c-0.005,-0.052 -0.024,-0.094 -0.059,-0.126c-0.034,-0.033 -0.077,-0.049 -0.128,-0.049Z" style="fill:#d1d5db;fill-rule:nonzero;"/></g><g transform="matrix(729.167,0,0,729.167,864.979,817.042)"><path d="M0.367,-0.53c0.066,0 0.118,0.019 0.157,0.058c0.039,0.038 0.059,0.094 0.059,0.167l-0,0.305l-0.071,0l0,-0.298c0,-0.055 -0.014,-0.096 -0.041,-0.125c-0.027,-0.029 -0.066,-0.043 -0.117,-0.043c-0.057,0 -0.102,0.017 -0.135,0.051c-0.033,0.033 -0.049,0.08 -0.049,0.139l-0,0.276l-0.071,-0l-0,-0.526l0.068,0l-0,0.097c0.019,-0.032 0.046,-0.057 0.08,-0.074c0.035,-0.018 0.075,-0.027 0.12,-0.027Z" style="fill:#d1d5db;fill-rule:nonzero;"/></g><g transform="matrix(729.167,0,0,729.167,1358.63,817.042)"><path d="M0.376,-0.032c-0.013,0.012 -0.03,0.021 -0.049,0.028c-0.02,0.006 -0.041,0.009 -0.062,0.009c-0.049,-0 -0.087,-0.013 -0.114,-0.04c-0.027,-0.027 -0.04,-0.064 -0.04,-0.113l-0,-0.318l-0.094,0l-0,-0.06l0.094,0l-0,-0.115l0.071,0l-0,0.115l0.16,0l0,0.06l-0.16,0l-0,0.314c-0,0.031 0.008,0.055 0.023,0.072c0.016,0.016 0.039,0.024 0.068,0.024c0.015,0 0.029,-0.002 0.042,-0.007c0.014,-0.005 0.026,-0.011 0.036,-0.02l0.025,0.051Z" style="fill:#d1d5db;fill-rule:nonzero;"/></g><g transform="matrix(729.167,0,0,729.167,1640.81,817.042)"><path d="M0.557,-0.241l-0.44,0c0.004,0.055 0.025,0.099 0.063,0.133c0.038,0.033 0.086,0.05 0.144,0.05c0.033,-0 0.063,-0.006 0.09,-0.018c0.027,-0.011 0.051,-0.028 0.071,-0.051l0.04,0.046c-0.023,0.028 -0.053,0.049 -0.088,0.064c-0.035,0.015 -0.073,0.022 -0.115,0.022c-0.054,-0 -0.102,-0.011 -0.144,-0.034c-0.041,-0.023 -0.074,-0.055 -0.097,-0.096c-0.023,-0.041 -0.035,-0.087 -0.035,-0.138c-0,-0.051 0.011,-0.097 0.033,-0.138c0.023,-0.041 0.053,-0.072 0.092,-0.095c0.039,-0.023 0.083,-0.034 0.132,-0.034c0.049,0 0.092,0.011 0.131,0.034c0.039,0.023 0.069,0.054 0.091,0.094c0.022,0.041 0.033,0.087 0.033,0.139l-0.001,0.022Zm-0.254,-0.228c-0.051,0 -0.093,0.016 -0.128,0.049c-0.034,0.032 -0.053,0.074 -0.058,0.126l0.373,0c-0.005,-0.052 -0.024,-0.094 -0.059,-0.126c-0.034,-0.033 -0.077,-0.049 -0.128,-0.049Z" style="fill:#d1d5db;fill-rule:nonzero;"/></g><g transform="matrix(729.167,0,0,729.167,2081.23,817.042)"><path d="M0.367,-0.53c0.066,0 0.118,0.019 0.157,0.058c0.039,0.038 0.059,0.094 0.059,0.167l-0,0.305l-0.071,0l0,-0.298c0,-0.055 -0.014,-0.096 -0.041,-0.125c-0.027,-0.029 -0.066,-0.043 -0.117,-0.043c-0.057,0 -0.102,0.017 -0.135,0.051c-0.033,0.033 -0.049,0.08 -0.049,0.139l-0,0.276l-0.071,-0l-0,-0.526l0.068,0l-0,0.097c0.019,-0.032 0.046,-0.057 0.08,-0.074c0.035,-0.018 0.075,-0.027 0.12,-0.027Z" style="fill:#d1d5db;fill-rule:nonzero;"/></g><g transform="matrix(729.167,0,0,729.167,2576.33,817.042)"><path d="M0.317,0.005c-0.052,-0 -0.099,-0.011 -0.14,-0.034c-0.04,-0.023 -0.073,-0.055 -0.096,-0.096c-0.023,-0.041 -0.035,-0.087 -0.035,-0.138c0,-0.051 0.012,-0.097 0.035,-0.138c0.023,-0.041 0.056,-0.072 0.097,-0.095c0.041,-0.023 0.087,-0.034 0.139,-0.034c0.045,0 0.086,0.009 0.122,0.027c0.035,0.017 0.063,0.043 0.084,0.077l-0.053,0.036c-0.017,-0.026 -0.039,-0.045 -0.066,-0.058c-0.027,-0.014 -0.056,-0.02 -0.087,-0.02c-0.038,0 -0.072,0.009 -0.103,0.026c-0.03,0.017 -0.053,0.041 -0.071,0.072c-0.016,0.031 -0.025,0.067 -0.025,0.107c0,0.041 0.009,0.077 0.025,0.108c0.018,0.031 0.041,0.055 0.072,0.072c0.03,0.017 0.064,0.025 0.102,0.025c0.031,0 0.06,-0.006 0.087,-0.019c0.027,-0.013 0.049,-0.032 0.066,-0.058l0.053,0.036c-0.021,0.034 -0.049,0.06 -0.085,0.078c-0.036,0.017 -0.076,0.026 -0.121,0.026Z" style="fill:#d1d5db;fill-rule:nonzero;"/></g><g transform="matrix(729.167,0,0,729.167,2980.29,817.042)"><path d="M0.557,-0.241l-0.44,0c0.004,0.055 0.025,0.099 0.063,0.133c0.038,0.033 0.086,0.05 0.144,0.05c0.033,-0 0.063,-0.006 0.09,-0.018c0.027,-0.011 0.051,-0.028 0.071,-0.051l0.04,0.046c-0.023,0.028 -0.053,0.049 -0.088,0.064c-0.035,0.015 -0.073,0.022 -0.115,0.022c-0.054,-0 -0.102,-0.011 -0.144,-0.034c-0.041,-0.023 -0.074,-0.055 -0.097,-0.096c-0.023,-0.041 -0.035,-0.087 -0.035,-0.138c-0,-0.051 0.011,-0.097 0.033,-0.138c0.023,-0.041 0.053,-0.072 0.092,-0.095c0.039,-0.023 0.083,-0.034 0.132,-0.034c0.049,0 0.092,0.011 0.131,0.034c0.039,0.023 0.069,0.054 0.091,0.094c0.022,0.041 0.033,0.087 0.033,0.139l-0.001,0.022Zm-0.254,-0.228c-0.051,0 -0.093,0.016 -0.128,0.049c-0.034,0.032 -0.053,0.074 -0.058,0.126l0.373,0c-0.005,-0.052 -0.024,-0.094 -0.059,-0.126c-0.034,-0.033 -0.077,-0.049 -0.128,-0.049Z" style="fill:#d1d5db;fill-rule:nonzero;"/></g><g transform="matrix(729.167,0,0,729.167,68,1596.21)"><path d="M0.37,-0.53c0.049,0 0.094,0.011 0.134,0.034c0.04,0.022 0.071,0.053 0.094,0.094c0.023,0.041 0.034,0.087 0.034,0.139c0,0.052 -0.011,0.098 -0.034,0.139c-0.023,0.041 -0.054,0.072 -0.094,0.095c-0.04,0.023 -0.085,0.034 -0.134,0.034c-0.044,-0 -0.084,-0.009 -0.118,-0.028c-0.036,-0.019 -0.064,-0.046 -0.085,-0.081l0,0.104l-0.068,-0l0,-0.742l0.071,0l0,0.316c0.022,-0.034 0.05,-0.06 0.085,-0.077c0.034,-0.018 0.072,-0.027 0.115,-0.027Zm-0.005,0.472c0.037,-0 0.07,-0.009 0.1,-0.026c0.03,-0.017 0.053,-0.041 0.071,-0.072c0.016,-0.031 0.025,-0.067 0.025,-0.107c0,-0.04 -0.009,-0.076 -0.026,-0.107c-0.017,-0.031 -0.04,-0.055 -0.07,-0.073c-0.03,-0.017 -0.063,-0.025 -0.1,-0.025c-0.037,0 -0.071,0.009 -0.1,0.026c-0.03,0.017 -0.054,0.041 -0.071,0.072c-0.017,0.031 -0.025,0.067 -0.025,0.107c0,0.04 0.008,0.076 0.025,0.107c0.017,0.031 0.041,0.056 0.071,0.073c0.029,0.017 0.063,0.025 0.1,0.025Z" style="fill:#d1d5db;fill-rule:nonzero;"/></g><g transform="matrix(729.167,0,0,729.167,562.375,1596.21)"><path d="M0.573,-0.526l-0,0.526l-0.068,-0l-0,-0.096c-0.019,0.032 -0.044,0.057 -0.077,0.075c-0.033,0.017 -0.07,0.026 -0.112,0.026c-0.069,-0 -0.123,-0.019 -0.163,-0.057c-0.039,-0.039 -0.059,-0.095 -0.059,-0.169l-0,-0.305l0.071,0l-0,0.298c-0,0.055 0.014,0.097 0.041,0.126c0.027,0.029 0.066,0.043 0.117,0.043c0.055,0 0.099,-0.017 0.131,-0.05c0.032,-0.034 0.048,-0.081 0.048,-0.141l-0,-0.276l0.071,0Z" style="fill:#d1d5db;fill-rule:nonzero;"/></g><g transform="matrix(729.167,0,0,729.167,1053.1,1596.21)"><path d="M0.099,-0.526l0.071,0l0,0.526l-0.071,-0l0,-0.526Zm0.036,-0.115c-0.015,0 -0.027,-0.005 -0.037,-0.015c-0.01,-0.01 -0.015,-0.022 -0.015,-0.036c0,-0.013 0.005,-0.025 0.015,-0.035c0.01,-0.01 0.022,-0.015 0.037,-0.015c0.015,0 0.027,0.005 0.037,0.015c0.01,0.009 0.015,0.021 0.015,0.034c0,0.015 -0.005,0.027 -0.015,0.037c-0.01,0.01 -0.022,0.015 -0.037,0.015Z" style="fill:#d1d5db;fill-rule:nonzero;"/></g><g transform="matrix(729.167,0,0,729.167,1249.25,1596.21)"><rect x="0.099" y="-0.742" width="0.071" height="0.742" style="fill:#d1d5db;fill-rule:nonzero;"/></g><g transform="matrix(729.167,0,0,729.167,1445.4,1596.21)"><path d="M0.579,-0.742l0,0.742l-0.068,-0l0,-0.104c-0.021,0.035 -0.049,0.062 -0.084,0.081c-0.035,0.019 -0.075,0.028 -0.119,0.028c-0.049,-0 -0.094,-0.011 -0.134,-0.034c-0.04,-0.023 -0.071,-0.054 -0.094,-0.095c-0.023,-0.041 -0.034,-0.087 -0.034,-0.139c0,-0.052 0.011,-0.098 0.034,-0.139c0.023,-0.041 0.054,-0.072 0.094,-0.094c0.04,-0.023 0.085,-0.034 0.134,-0.034c0.043,0 0.081,0.009 0.116,0.027c0.034,0.017 0.062,0.043 0.084,0.077l0,-0.316l0.071,0Zm-0.265,0.684c0.037,-0 0.07,-0.009 0.1,-0.026c0.029,-0.017 0.053,-0.041 0.07,-0.072c0.017,-0.031 0.025,-0.067 0.025,-0.107c0,-0.04 -0.008,-0.076 -0.025,-0.107c-0.017,-0.031 -0.041,-0.056 -0.07,-0.073c-0.03,-0.017 -0.063,-0.025 -0.1,-0.025c-0.037,-0 -0.071,0.008 -0.1,0.025c-0.03,0.017 -0.053,0.042 -0.07,0.073c-0.017,0.031 -0.026,0.067 -0.026,0.107c0,0.04 0.009,0.076 0.026,0.107c0.017,0.031 0.04,0.055 0.07,0.072c0.029,0.017 0.063,0.026 0.1,0.026Z" style="fill:#d1d5db;fill-rule:nonzero;"/></g><g transform="matrix(729.167,0,0,729.167,1939.77,1596.21)"><path d="M0.557,-0.241l-0.44,0c0.004,0.055 0.025,0.099 0.063,0.133c0.038,0.033 0.086,0.05 0.144,0.05c0.033,-0 0.063,-0.006 0.09,-0.018c0.027,-0.011 0.051,-0.028 0.071,-0.051l0.04,0.046c-0.023,0.028 -0.053,0.049 -0.088,0.064c-0.035,0.015 -0.073,0.022 -0.115,0.022c-0.054,-0 -0.102,-0.011 -0.144,-0.034c-0.041,-0.023 -0.074,-0.055 -0.097,-0.096c-0.023,-0.041 -0.035,-0.087 -0.035,-0.138c-0,-0.051 0.011,-0.097 0.033,-0.138c0.023,-0.041 0.053,-0.072 0.092,-0.095c0.039,-0.023 0.083,-0.034 0.132,-0.034c0.049,0 0.092,0.011 0.131,0.034c0.039,0.023 0.069,0.054 0.091,0.094c0.022,0.041 0.033,0.087 0.033,0.139l-0.001,0.022Zm-0.254,-0.228c-0.051,0 -0.093,0.016 -0.128,0.049c-0.034,0.032 -0.053,0.074 -0.058,0.126l0.373,0c-0.005,-0.052 -0.024,-0.094 -0.059,-0.126c-0.034,-0.033 -0.077,-0.049 -0.128,-0.049Z" style="fill:#d1d5db;fill-rule:nonzero;"/></g><g transform="matrix(729.167,0,0,729.167,2380.19,1596.21)"><path d="M0.167,-0.423c0.017,-0.035 0.041,-0.062 0.074,-0.08c0.034,-0.018 0.074,-0.027 0.123,-0.027l0,0.069l-0.017,-0.001c-0.055,0 -0.099,0.017 -0.13,0.051c-0.031,0.034 -0.047,0.082 -0.047,0.143l0,0.268l-0.071,-0l0,-0.526l0.068,0l0,0.103Z" style="fill:#d1d5db;fill-rule:nonzero;"/></g></g></svg>